<?xml version="1.0" encoding="UTF-8" standalone="no"?>
<!-- Created with Inkscape (http://www.inkscape.org/) -->

<svg xmlns:dc="http://purl.org/dc/elements/1.1/" xmlns:cc="http://creativecommons.org/ns#" xmlns:rdf="http://www.w3.org/1999/02/22-rdf-syntax-ns#" xmlns:svg="http://www.w3.org/2000/svg" xmlns="http://www.w3.org/2000/svg" xmlns:sodipodi="http://sodipodi.sourceforge.net/DTD/sodipodi-0.dtd" xmlns:inkscape="http://www.inkscape.org/namespaces/inkscape" width="100mm" height="100mm" viewBox="0 0 354.33071 354.33072" id="svg2" version="1.1" inkscape:version="0.92.1 r15371" sodipodi:docname="anyscript_logo_compact2.svg" inkscape:export-filename="C:\Users\mel\Documents\anybody.github.io\assets\images\anyscript_logo_compact2.png" inkscape:export-xdpi="41.783001" inkscape:export-ydpi="41.783001">
<defs id="defs4" />
<sodipodi:namedview id="base" pagecolor="#ffffff" bordercolor="#666666" borderopacity="1.0" inkscape:pageopacity="0.0" inkscape:pageshadow="2" inkscape:zoom="0.83766667" inkscape:cx="163.40175" inkscape:cy="118.91827" inkscape:document-units="px" inkscape:current-layer="g163" showgrid="false" showguides="true" inkscape:guide-bbox="true" fit-margin-top="3" fit-margin-left="3" fit-margin-right="3" fit-margin-bottom="3" inkscape:window-width="1920" inkscape:window-height="1017" inkscape:window-x="-4" inkscape:window-y="1072" inkscape:window-maximized="1" inkscape:snap-global="false">
<sodipodi:guide position="216.76302,-7.3135197" orientation="0,1" id="guide4220" inkscape:locked="false" />
<sodipodi:guide position="300.32849,-125.49896" orientation="0,1" id="guide4222" inkscape:locked="false" />
<sodipodi:guide position="407.76981,-7.3135197" orientation="0,1" id="guide4224" inkscape:locked="false" />
<sodipodi:guide position="558.85782,224.28526" orientation="0,1" id="guide4226" inkscape:locked="false" />
<sodipodi:guide position="357.95281,467.39719" orientation="1,0" id="guide4280" inkscape:locked="false" />
<sodipodi:guide position="850.9298,521.42206" orientation="1,0" id="guide4282" inkscape:locked="false" />
</sodipodi:namedview>
<metadata id="metadata7">
<rdf:RDF>
<cc:Work rdf:about="">
<dc:format>image/svg+xml</dc:format>
<dc:type rdf:resource="http://purl.org/dc/dcmitype/StillImage" />
<dc:title></dc:title>
</cc:Work>
</rdf:RDF>
</metadata>
<g inkscape:label="Layer 1" inkscape:groupmode="layer" id="layer1" transform="translate(1.8804067,63.758755)">
<g transform="translate(-35.397959,-83.543981)" id="layer1-0" inkscape:label="Layer 1">
<g id="g163">
<g id="g210" transform="translate(0,-5.625)">
<path style="fill:#96092b;fill-opacity:1;fill-rule:evenodd;stroke:none;stroke-width:0.83607441;stroke-miterlimit:4;stroke-dasharray:none" d="m 251.53816,109.24998 h -14.91999 c -0.85664,0 -1.42774,0.49972 -1.99884,0.85666 -0.64249,0.57112 -0.85665,1.2136 -0.85665,1.99887 l 0.5711,86.45119 -40.33392,-87.37923 c -0.21416,-0.64249 -0.35694,-1.285 -0.99942,-1.42777 -0.21416,-0.49972 -0.78526,-0.49972 -1.42775,-0.49972 h -18.7749 c -0.85664,0 -1.42774,0.49972 -1.85606,0.85666 -0.57111,0.57112 -0.99944,1.2136 -0.99944,1.99887 v 118.0762 c 0,0.64249 0.42833,1.42775 0.99944,2.07025 0.42832,0.57111 0.99942,0.78527 1.85606,0.78527 h 15.13414 c 0.78527,0 1.42775,-0.21416 1.99885,-0.78527 0.42832,-0.6425 0.85665,-1.42776 0.85665,-2.07025 l -0.85665,-86.02287 40.4053,87.30786 c 0,0.49971 0.64249,0.78526 0.78526,0.92804 0.64249,0.42833 1.21358,0.64249 1.78468,0.64249 h 18.63214 c 0.99942,0 1.42774,-0.21416 1.99884,-0.78527 0.64249,-0.6425 0.85665,-1.42776 0.85665,-2.07025 v -118.0762 c 0,-0.78527 -0.21416,-1.42775 -0.85665,-1.99887 -0.5711,-0.35694 -0.99942,-0.85666 -1.99884,-0.85666" id="path2993" inkscape:connector-curvature="0" />
<path style="fill:#96092b;fill-opacity:1;fill-rule:evenodd;stroke:none;stroke-width:0.83607441;stroke-miterlimit:4;stroke-dasharray:none" d="m 306.79205,107.82222 c -0.6425,-0.78527 -0.99943,-0.92804 -1.64193,-1.42777 -0.78526,-0.14278 -1.42774,-0.14278 -2.213,0.49973 l -14.27749,7.2816 c -0.78526,0.21416 -1.42775,0.85665 -1.42775,1.64192 -0.21417,0.85666 -0.21417,1.42777 0.42833,2.28443 l 37.69258,67.46191 v 44.61767 c 0,0.64249 0.21416,1.42775 0.78526,2.07025 0.42832,0.57111 1.0708,0.78527 1.85606,0.78527 h 15.13415 c 0.78526,0 1.42774,-0.21416 1.99884,-0.78527 0.64249,-0.6425 0.85665,-1.42776 0.85665,-2.07025 v -44.61767 l 37.90673,-67.46191 c 0.21416,-0.42833 0.21416,-1.07082 0.21416,-1.42777 0,-0.42833 0,-1.07083 -0.21416,-1.42777 -0.21416,-0.42832 -0.78526,-0.85665 -1.21359,-1.07081 l -14.2775,-7.2816 c -0.64248,-0.64251 -1.42774,-0.64251 -2.07022,-0.49973 -0.78526,0.49973 -1.42776,0.6425 -1.64192,1.42777 l -28.9119,55.89702 z" id="path2995" inkscape:connector-curvature="0" />
<path style="fill:#96092b;fill-opacity:1;fill-rule:evenodd;stroke:none;stroke-width:0.83607441;stroke-miterlimit:4;stroke-dasharray:none" d="m 75.068369,167.21726 13.706395,-56.68228 13.278056,56.68228 z m 2.855497,-90.377545 c -0.571091,0.499711 -0.785251,0.856652 -1.142192,1.713315 L 38.589377,228.32561 v 1.78471 c 0.07138,0.14277 0.14277,0.28555 0.214171,0.49971 0.356931,0.35695 0.999422,0.99943 1.784684,0.99943 l 14.919968,4.2833 c 0.428331,0 0.785262,0.35695 1.427753,0 0.428332,0 0.856653,-0.21416 1.427754,-0.78526 0.428321,-0.28556 0.642482,-0.85667 0.642482,-1.28499 l 11.421999,-47.4732 h 36.550362 l 11.56477,47.4732 c 0,0.42832 0.21416,0.99943 0.42833,1.28499 0.35694,0.5711 0.99943,0.78526 1.42775,0.78526 0.35694,0.35695 0.99942,0.35695 1.42775,0 l 14.84859,-3.92635 c 0.78526,-0.35695 1.42775,-0.99943 1.64191,-1.35638 0.57111,-0.85665 0.57111,-1.42776 0.57111,-2.28442 L 100.62508,78.55303 c -0.21417,-0.856663 -0.642493,-1.213604 -1.070814,-1.713315 -0.499722,-0.285561 -1.142203,-0.499722 -1.713305,-0.499722 h -0.07138 -18.13241 -0.142781 c -0.713871,0 -1.284973,0.214161 -1.570524,0.499722" id="path2997" inkscape:connector-curvature="0" />
<path inkscape:connector-curvature="0" id="path3001-5" d="m 334.93666,95.614173 c -12.13134,-0.0673 -19.46393,15.409827 -12.54111,25.082237 5.88864,9.84446 21.82454,9.29486 27.17242,-0.71851 6.33367,-10.8141 -1.78526,-25.283325 -14.63131,-24.363727 z" style="fill:#ffffff;fill-opacity:1;fill-rule:evenodd;stroke:none;stroke-width:1.04509306" />
<path style="fill:#a7a6a6;fill-opacity:1;fill-rule:evenodd;stroke:none;stroke-width:1.04509306" d="m 335.77535,97.685088 c -4.06909,0 -7.13875,1.427764 -9.99424,4.069132 -2.49857,2.85553 -3.92631,6.068 -3.92631,9.78019 0,4.06912 1.42774,7.56716 3.92631,9.99435 2.85549,2.85554 5.92515,4.2833 9.99424,4.2833 3.64075,0 7.13875,-1.42776 9.99424,-4.2833 2.42716,-2.42719 3.85491,-5.92523 3.85491,-9.99435 0,-3.71219 -1.42775,-6.92466 -3.85491,-9.78019 -2.85549,-2.641368 -6.35349,-4.069132 -9.99424,-4.069132" id="path3001" inkscape:connector-curvature="0" />
<text transform="scale(0.97879509,1.0216643)" xml:space="preserve" style="font-style:normal;font-variant:normal;font-weight:normal;font-stretch:normal;font-size:6.69096613px;line-height:0%;font-family:Corbel;-inkscape-font-specification:'Corbel, Normal';text-align:start;letter-spacing:0px;word-spacing:0px;writing-mode:lr-tb;text-anchor:start;fill:#a7a6a6;fill-opacity:1;stroke:#a7a6a6;stroke-width:0.61323047px;stroke-linecap:butt;stroke-linejoin:miter;stroke-opacity:1" x="31.363743" y="327.61838" id="text4200-3"><tspan sodipodi:role="line" id="tspan4202-2" x="31.363743" y="327.61838" style="font-style:normal;font-variant:normal;font-weight:normal;font-stretch:normal;font-size:133.34872437px;line-height:125%;font-family:Corbel;-inkscape-font-specification:'Corbel, Normal';font-variant-ligatures:normal;font-variant-caps:small-caps;font-variant-numeric:normal;font-feature-settings:normal;text-align:start;writing-mode:lr-tb;text-anchor:start;fill:#a7a6a6;fill-opacity:1;stroke:#a7a6a6;stroke-width:0.61323047px;stroke-opacity:1">Script</tspan></text>
</g>
</g>
</g>
</g>
</svg>
