<?xml version="1.0" encoding="UTF-8" standalone="no"?>
<!-- Created with Inkscape (http://www.inkscape.org/) -->

<svg xmlns:dc="http://purl.org/dc/elements/1.1/" xmlns:cc="http://creativecommons.org/ns#" xmlns:rdf="http://www.w3.org/1999/02/22-rdf-syntax-ns#" xmlns:svg="http://www.w3.org/2000/svg" xmlns="http://www.w3.org/2000/svg" xmlns:sodipodi="http://sodipodi.sourceforge.net/DTD/sodipodi-0.dtd" xmlns:inkscape="http://www.inkscape.org/namespaces/inkscape" width="283.5228mm" height="53.552608mm" viewBox="0 0 1004.6084 189.75334" id="svg2" version="1.1" inkscape:version="0.92.1 r15371" sodipodi:docname="anyscript_logo.svg" inkscape:export-filename="C:\Users\mel\Documents\anybody.github.io\assets\images\anyscript_logo.png" inkscape:export-xdpi="53.595894" inkscape:export-ydpi="53.595894">
<defs id="defs4" />
<sodipodi:namedview id="base" pagecolor="#ffffff" bordercolor="#666666" borderopacity="1.0" inkscape:pageopacity="0.0" inkscape:pageshadow="2" inkscape:zoom="0.65579724" inkscape:cx="369.60607" inkscape:cy="277.84626" inkscape:document-units="px" inkscape:current-layer="layer1-0" showgrid="false" inkscape:window-width="1920" inkscape:window-height="1017" inkscape:window-x="-8" inkscape:window-y="-8" inkscape:window-maximized="1" fit-margin-top="5" fit-margin-left="5" fit-margin-right="5" fit-margin-bottom="5" showguides="true" inkscape:guide-bbox="true">
<sodipodi:guide position="205.2883,138.33146" orientation="0,1" id="guide308" inkscape:locked="false" />
<sodipodi:guide position="784.94099,23.170113" orientation="0,1" id="guide310" inkscape:locked="false" />
</sodipodi:namedview>
<metadata id="metadata7">
<rdf:RDF>
<cc:Work rdf:about="">
<dc:format>image/svg+xml</dc:format>
<dc:type rdf:resource="http://purl.org/dc/dcmitype/StillImage" />
<dc:title></dc:title>
</cc:Work>
</rdf:RDF>
</metadata>
<g inkscape:label="Layer 1" inkscape:groupmode="layer" id="layer1" transform="translate(713.06303,-118.12359)">
<g transform="translate(-704.13404,102.81797)" id="layer1-4" inkscape:label="Layer 1">
<g inkscape:label="Layer 1" id="layer1-0" transform="translate(-35.397959,-83.543981)">
<text transform="scale(1.0436848,0.95814369)" id="text4196" y="277.65286" x="366.61069" style="font-style:normal;font-variant:normal;font-weight:normal;font-stretch:normal;line-height:0%;font-family:'Trebuchet MS';-inkscape-font-specification:'Trebuchet MS, Normal';text-align:start;letter-spacing:0px;word-spacing:0px;writing-mode:lr-tb;text-anchor:start;fill:#a7a6a6;fill-opacity:1;stroke:#a7a6a6;stroke-width:1.02433228px;stroke-linecap:butt;stroke-linejoin:miter;stroke-opacity:1" xml:space="preserve"><tspan style="font-style:normal;font-variant:normal;font-weight:normal;font-stretch:normal;font-size:211.26852417px;line-height:125%;font-family:'Trebuchet MS';-inkscape-font-specification:'Trebuchet MS, Normal';text-align:start;writing-mode:lr-tb;text-anchor:start;fill:#a7a6a6;fill-opacity:1;stroke:#a7a6a6;stroke-width:1.02433228px;stroke-opacity:1" y="281.04147" x="366.61069" id="tspan4198" sodipodi:role="line" /></text>
<g aria-label="TM" style="font-style:normal;font-variant:normal;font-weight:normal;font-stretch:normal;line-height:0%;font-family:sans-serif;-inkscape-font-specification:'Sans, Normal';text-align:start;letter-spacing:0px;word-spacing:0px;writing-mode:lr-tb;text-anchor:start;fill:#999999;fill-opacity:1;stroke:#999999;stroke-width:1px;stroke-linecap:butt;stroke-linejoin:miter;stroke-opacity:1" id="text4186-7">
<path d="m 995.46586,152.37843 h -6.61493 v 16.32595 h -2.46195 v -16.32595 h -6.61493 v -2.1884 h 15.69181 z" style="font-style:normal;font-variant:normal;font-weight:normal;font-stretch:normal;font-size:25.46500015px;line-height:125%;font-family:sans-serif;-inkscape-font-specification:'Sans, Normal';text-align:start;writing-mode:lr-tb;text-anchor:start;fill:#999999;fill-opacity:1;stroke:#999999;stroke-opacity:1" id="path4522" />
<path d="m 1014.4651,168.70438 h -2.4619 v -15.95293 l -5.1477,10.85495 h -1.4672 l -5.1105,-10.85495 v 15.95293 h -2.30026 v -18.51435 h 3.35716 l 4.9364,10.30785 4.7747,-10.30785 h 3.4193 z" style="font-style:normal;font-variant:normal;font-weight:normal;font-stretch:normal;font-size:25.46500015px;line-height:125%;font-family:sans-serif;-inkscape-font-specification:'Sans, Normal';text-align:start;writing-mode:lr-tb;text-anchor:start;fill:#999999;fill-opacity:1;stroke:#999999;stroke-opacity:1" id="path4524" />
</g>
<g aria-label="Script" transform="scale(0.97879508,1.0216643)" style="font-style:normal;font-variant:normal;font-weight:normal;font-stretch:normal;font-size:15.12031746px;line-height:0%;font-family:Corbel;-inkscape-font-specification:'Corbel, Normal';text-align:start;letter-spacing:0px;word-spacing:0px;writing-mode:lr-tb;text-anchor:start;fill:#999999;fill-opacity:1;stroke:#999999;stroke-width:1.38578475px;stroke-linecap:butt;stroke-linejoin:miter;stroke-opacity:1" id="text4200-3-0">
<path d="m 419.64043,154.7468 q 0,6.38782 2.59844,10.61028 2.59844,4.11419 6.92916,6.82089 4.43899,2.70671 10.17721,4.439 5.84648,1.73229 12.12603,3.24804 8.44491,2.0571 16.56502,4.54726 8.22838,2.49017 14.6162,6.92916 6.38782,4.33073 10.28548,11.36816 4.00592,7.03743 4.00592,18.08078 0,11.25989 -4.22246,19.48826 -4.11419,8.12011 -11.58469,13.42525 -7.36223,5.19687 -17.64771,7.68704 -10.28547,2.59844 -22.51977,2.59844 -5.62994,0 -11.58469,-0.75788 -5.84648,-0.64961 -11.25989,-1.84056 -5.30514,-1.19095 -9.63586,-2.7067 -4.33073,-1.51576 -6.8209,-3.03151 v -16.13195 q 3.89766,1.94882 8.76972,3.57285 4.87207,1.62402 10.06894,2.81497 5.19687,1.08268 10.50201,1.73229 5.30514,0.64961 9.96067,0.64961 7.57877,0 14.39966,-1.29922 6.92916,-1.29922 12.12603,-4.33073 5.19687,-3.0315 8.22838,-8.22838 3.03151,-5.30513 3.03151,-13.20871 0,-6.49609 -2.7067,-10.71854 -2.59844,-4.22246 -7.03743,-6.92917 -4.439,-2.81497 -10.28548,-4.54726 -5.73821,-1.73229 -12.12603,-3.24804 -8.44491,-1.94883 -16.56502,-4.33073 -8.01185,-2.49016 -14.39967,-6.82089 -6.27955,-4.33073 -10.1772,-11.15162 -3.78939,-6.82089 -3.78939,-17.43117 0,-11.04335 3.89766,-18.94692 3.89765,-8.01185 10.61027,-13.20872 6.71263,-5.19687 15.69888,-7.68704 8.98626,-2.49016 19.16347,-2.49016 11.58469,0 21.54536,2.27363 10.06893,2.16536 18.40558,5.73821 v 16.34849 q -8.98626,-3.78939 -18.62212,-6.17129 -9.5276,-2.38189 -20.46268,-2.49016 -8.22838,0 -14.29139,1.84056 -6.06302,1.73229 -10.06894,5.0886 -4.00592,3.24804 -5.95475,8.01184 -1.94883,4.65553 -1.94883,10.39374 z" style="font-style:normal;font-variant:normal;font-weight:normal;font-stretch:normal;font-size:221.7331543px;line-height:125%;font-family:Corbel;-inkscape-font-specification:'Corbel, Normal';font-variant-ligatures:normal;font-variant-caps:small-caps;font-variant-numeric:normal;font-feature-settings:normal;text-align:start;writing-mode:lr-tb;text-anchor:start;fill:#999999;fill-opacity:1;stroke:#999999;stroke-width:1.38578475px;stroke-opacity:1" id="path4509" />
<path d="m 583.12533,160.37675 q -9.09452,0 -17.21463,2.7067 -8.01185,2.7067 -14.07486,8.33665 -5.95475,5.52167 -9.5276,14.07485 -3.46458,8.55319 -3.46458,20.24615 0,11.58469 3.24805,19.92134 3.24804,8.22837 9.20279,13.42524 5.95475,5.19688 14.07486,7.57877 8.22838,2.3819 18.29731,2.3819 2.81497,0 5.95475,-0.3248 3.13978,-0.32481 6.27955,-0.86615 3.24805,-0.54134 6.27955,-1.29921 3.03151,-0.75788 5.52168,-1.62403 v 15.04928 q -5.0886,1.84055 -12.12603,2.92324 -6.92916,1.08268 -13.96659,1.08268 -13.85832,0 -25.00994,-3.78939 -11.15162,-3.89765 -19.0552,-11.25988 -7.90357,-7.36224 -12.12603,-18.08078 -4.22246,-10.82682 -4.22246,-24.68514 0,-13.53352 4.439,-24.7934 4.43899,-11.25989 12.45083,-19.16347 8.01185,-8.01184 19.0552,-12.34256 11.04335,-4.439 24.25206,-4.439 3.57285,0 7.1457,0.32481 3.68112,0.3248 7.03743,0.86614 3.35631,0.54134 6.17128,1.29922 2.81497,0.75788 4.87207,1.62402 v 14.94101 q -5.19687,-1.7323 -11.25989,-2.92324 -6.06301,-1.19095 -12.2343,-1.19095 z" style="font-style:normal;font-variant:normal;font-weight:normal;font-stretch:normal;font-size:221.7331543px;line-height:125%;font-family:Corbel;-inkscape-font-specification:'Corbel, Normal';font-variant-ligatures:normal;font-variant-caps:small-caps;font-variant-numeric:normal;font-feature-settings:normal;text-align:start;writing-mode:lr-tb;text-anchor:start;fill:#999999;fill-opacity:1;stroke:#999999;stroke-width:1.38578475px;stroke-opacity:1" id="path4511" />
<path d="m 688.14543,213.75294 35.62022,47.52971 H 703.5195 l -33.13005,-45.58088 h -17.86424 v 45.58088 h -16.9981 v -113.1402 h 35.62022 q 8.01184,0 14.07486,0.86614 6.17128,0.86615 11.04335,2.59844 10.71854,3.78938 16.02368,11.36815 5.41341,7.57877 5.41341,18.18905 0,6.71262 -2.27363,12.12603 -2.16536,5.41341 -6.17128,9.41933 -3.89766,4.00592 -9.31106,6.71262 -5.41341,2.70671 -11.80123,3.89766 z m -35.62022,-50.66949 v 37.67731 h 18.18905 q 15.59061,0 22.4115,-4.87206 6.92916,-4.98034 6.92916,-14.83274 -0.10826,-9.31106 -6.82089,-13.64179 -6.60436,-4.33072 -18.94692,-4.33072 z" style="font-style:normal;font-variant:normal;font-weight:normal;font-stretch:normal;font-size:221.7331543px;line-height:125%;font-family:Corbel;-inkscape-font-specification:'Corbel, Normal';font-variant-ligatures:normal;font-variant-caps:small-caps;font-variant-numeric:normal;font-feature-settings:normal;text-align:start;writing-mode:lr-tb;text-anchor:start;fill:#999999;fill-opacity:1;stroke:#999999;stroke-width:1.38578475px;stroke-opacity:1" id="path4513" />
<path d="m 747.6929,261.28265 v -113.1402 h 16.9981 v 113.1402 z" style="font-style:normal;font-variant:normal;font-weight:normal;font-stretch:normal;font-size:221.7331543px;line-height:125%;font-family:Corbel;-inkscape-font-specification:'Corbel, Normal';font-variant-ligatures:normal;font-variant-caps:small-caps;font-variant-numeric:normal;font-feature-settings:normal;text-align:start;writing-mode:lr-tb;text-anchor:start;fill:#999999;fill-opacity:1;stroke:#999999;stroke-width:1.38578475px;stroke-opacity:1" id="path4515" />
<path d="m 816.22664,261.28265 h -16.9981 v -113.1402 h 36.7029 q 10.71855,0 18.83866,2.38189 8.22838,2.3819 13.64178,6.8209 5.52168,4.33072 8.22838,10.39374 2.81498,6.06302 2.81498,13.53352 0,8.55318 -3.68112,15.37407 -3.57285,6.8209 -10.28547,11.58469 -6.60436,4.65553 -16.13196,7.1457 -9.52759,2.49017 -21.32882,2.49017 -2.81497,0 -5.73821,-0.10827 -2.92324,-0.10827 -6.06302,-0.43307 z m 0,-59.1144 q 2.81497,0.3248 5.62994,0.54134 2.81498,0.21654 5.52168,0.21654 9.74413,0 16.34849,-1.51576 6.60436,-1.62402 10.61028,-4.43899 4.00592,-2.81497 5.73821,-6.8209 1.73229,-4.00592 1.73229,-8.87798 0,-18.18905 -27.17531,-18.18905 h -18.40558 z" style="font-style:normal;font-variant:normal;font-weight:normal;font-stretch:normal;font-size:221.7331543px;line-height:125%;font-family:Corbel;-inkscape-font-specification:'Corbel, Normal';font-variant-ligatures:normal;font-variant-caps:small-caps;font-variant-numeric:normal;font-feature-settings:normal;text-align:start;writing-mode:lr-tb;text-anchor:start;fill:#999999;fill-opacity:1;stroke:#999999;stroke-width:1.38578475px;stroke-opacity:1" id="path4517" />
<path d="m 930.12473,163.08345 h -40.81709 v -14.941 h 98.63227 v 14.941 h -40.81709 v 98.1992 h -16.99809 z" style="font-style:normal;font-variant:normal;font-weight:normal;font-stretch:normal;font-size:221.7331543px;line-height:125%;font-family:Corbel;-inkscape-font-specification:'Corbel, Normal';font-variant-ligatures:normal;font-variant-caps:small-caps;font-variant-numeric:normal;font-feature-settings:normal;text-align:start;writing-mode:lr-tb;text-anchor:start;fill:#999999;fill-opacity:1;stroke:#999999;stroke-width:1.38578475px;stroke-opacity:1" id="path4519" />
</g>
<g id="g1425" transform="translate(1.604489,-1.5753811)">
<path inkscape:connector-curvature="0" id="path143" style="fill:#953337;fill-opacity:1;fill-rule:evenodd;stroke-width:2.97847247" d="m 248.26641,149.18912 h -14.28207 c -0.78275,0 -1.36951,0.39137 -1.95656,0.78274 -0.58706,0.58676 -0.78245,1.17382 -0.78245,1.95656 l 0.58676,82.95403 -38.73801,-83.93246 c -0.19569,-0.58675 -0.39137,-1.17381 -0.97813,-1.3695 -0.19569,-0.39137 -0.78274,-0.39137 -1.3695,-0.39137 h -17.99951 c -0.78274,0 -1.3698,0.39137 -1.76087,0.78274 -0.58706,0.58676 -0.97843,1.17382 -0.97843,1.95656 v 113.27935 c 0,0.58706 0.39137,1.3695 0.97843,1.95656 0.39107,0.58676 0.97813,0.78244 1.76087,0.78244 h 14.47776 c 0.78245,0 1.3695,-0.19568 1.95656,-0.78244 0.39107,-0.58706 0.78244,-1.3695 0.78244,-1.95656 l -0.78244,-82.56296 38.73801,83.73678 c 0,0.58705 0.58676,0.78274 0.78245,0.97842 0.58705,0.39108 1.17411,0.58676 1.76087,0.58676 h 17.80382 c 0.97843,0 1.3695,-0.19568 1.95656,-0.78244 0.58705,-0.58706 0.78244,-1.3695 0.78244,-1.95656 V 151.92842 c 0,-0.78274 -0.19539,-1.3698 -0.78244,-1.95656 -0.58706,-0.39137 -0.97813,-0.78274 -1.95656,-0.78274 z" />
<path inkscape:connector-curvature="0" id="path145" style="fill:#952c36;fill-opacity:1;fill-rule:evenodd;stroke-width:2.97847247" d="m 301.28679,147.81962 c -0.58706,-0.78244 -0.97813,-0.97813 -1.56519,-1.3695 -0.78244,-0.19569 -1.3695,-0.19569 -2.15224,0.39137 l -13.69502,7.04319 c -0.78274,0.19569 -1.3698,0.78275 -1.3698,1.56519 -0.19538,0.78274 -0.19538,1.3695 0.39138,2.15225 l 36.19469,64.75913 v 42.84652 c 0,0.58706 0.19569,1.3695 0.78274,1.95656 0.39108,0.58676 0.97813,0.78244 1.76058,0.78244 h 14.47805 c 0.78245,0 1.36951,-0.19568 1.95626,-0.78244 0.58706,-0.58706 0.78275,-1.3695 0.78275,-1.95656 v -42.84652 l 36.39038,-64.75913 c 0.19568,-0.39138 0.19568,-0.97843 0.19568,-1.36951 0,-0.39137 0,-0.97842 -0.19568,-1.3695 -0.19569,-0.39137 -0.78275,-0.78274 -1.17382,-0.97843 l -13.69531,-7.04319 c -0.58706,-0.58706 -1.3695,-0.58706 -1.95656,-0.39137 -0.78274,0.39137 -1.3695,0.58706 -1.56519,1.3695 l -27.782,53.60744 z" />
<path inkscape:connector-curvature="0" id="path147" style="fill:#953337;fill-opacity:1;fill-rule:evenodd;stroke-width:2.97847247" d="m 81.770993,118.08136 c -0.587056,0.39137 -0.782444,0.78274 -1.173816,1.56519 L 44.011112,263.4469 v 1.67628 c 0.05004,0.15161 0.113182,0.31036 0.195685,0.47596 0.391372,0.39137 0.978131,0.97813 1.760873,0.97813 l 14.282073,4.1088 c 0.391372,0 0.782743,0.39108 1.3698,0 0.391073,0 0.782444,-0.19568 1.369501,-0.78274 0.391074,-0.19568 0.586759,-0.78244 0.586759,-1.17381 L 74.532114,223.1437 h 35.020876 l 11.1517,45.58582 c 0,0.39137 0.19569,0.97813 0.39137,1.17381 0.39137,0.58706 0.97813,0.78274 1.3695,0.78274 0.39138,0.39108 0.97813,0.39108 1.36951,0 l 14.28237,-3.71743 c 0.78244,-0.39137 1.3695,-0.97813 1.56518,-1.3695 0.58676,-0.78274 0.58676,-1.3695 0.58676,-2.15224 L 103.48793,119.64655 c -0.19569,-0.78245 -0.58706,-1.17382 -0.97843,-1.56519 -0.55906,-0.3729 -1.11841,-0.57008 -1.67747,-0.58706 -0.0277,-5.9e-4 -0.0554,0 -0.0834,0 H 83.336181 c -0.03693,0 -0.07089,-5.9e-4 -0.106332,0 -0.727938,0.017 -1.272403,0.21416 -1.458856,0.58706 z m -2.739003,86.67146 13.108257,-54.38958 12.717183,54.38958 z" />
<path inkscape:connector-curvature="0" id="path152" style="fill:#999999;fill-opacity:1;fill-rule:evenodd;stroke-width:2.97847247" d="m 329.06849,138.03742 c -3.91282,0 -6.84751,1.36951 -9.58651,3.91282 -2.34793,2.73901 -3.71743,5.86938 -3.71743,9.39113 0,3.91282 1.3695,7.23888 3.71743,9.58681 2.739,2.739 5.67369,4.1085 9.58651,4.1085 3.52175,0 6.84781,-1.3695 9.58681,-4.1085 2.34793,-2.34793 3.71743,-5.67399 3.71743,-9.58681 0,-3.52175 -1.3695,-6.65212 -3.71743,-9.39113 -2.739,-2.54331 -6.06506,-3.91282 -9.58681,-3.91282 z" />
</g>
</g>
</g>
</g>
</svg>
