<?xml version="1.0" encoding="UTF-8" standalone="no"?>
<!-- Created with Inkscape (http://www.inkscape.org/) -->

<svg xmlns:dc="http://purl.org/dc/elements/1.1/" xmlns:cc="http://creativecommons.org/ns#" xmlns:rdf="http://www.w3.org/1999/02/22-rdf-syntax-ns#" xmlns:svg="http://www.w3.org/2000/svg" xmlns="http://www.w3.org/2000/svg" xmlns:sodipodi="http://sodipodi.sourceforge.net/DTD/sodipodi-0.dtd" xmlns:inkscape="http://www.inkscape.org/namespaces/inkscape" width="279.52274mm" height="74.462616mm" viewBox="0 0 990.43491 263.84393" id="svg2" version="1.1" inkscape:version="0.92.1 r15371" sodipodi:docname="anyscript_logo_community.svg" inkscape:export-filename="C:\Users\mel\Documents\anybody.github.io\assets\images\anyscript_logo_community.png" inkscape:export-xdpi="54.577724" inkscape:export-ydpi="54.577724">
<defs id="defs4" />
<sodipodi:namedview id="base" pagecolor="#ffffff" bordercolor="#666666" borderopacity="1.0" inkscape:pageopacity="0.0" inkscape:pageshadow="2" inkscape:zoom="0.59231978" inkscape:cx="241.88822" inkscape:cy="195.80581" inkscape:document-units="px" inkscape:current-layer="layer1-0" showgrid="false" showguides="true" inkscape:guide-bbox="true" fit-margin-top="3" fit-margin-left="3" fit-margin-right="3" fit-margin-bottom="3" inkscape:window-width="1920" inkscape:window-height="1017" inkscape:window-x="-4" inkscape:window-y="1072" inkscape:window-maximized="1">
<sodipodi:guide position="216.72499,-11.156264" orientation="0,1" id="guide4220" inkscape:locked="false" />
<sodipodi:guide position="407.73178,-11.156264" orientation="0,1" id="guide4224" inkscape:locked="false" />
<sodipodi:guide position="558.8198,220.44252" orientation="0,1" id="guide4226" inkscape:locked="false" />
<sodipodi:guide position="562.19635,100.57483" orientation="0,1" id="guide4236" inkscape:locked="false" />
<sodipodi:guide position="357.91479,463.55445" orientation="1,0" id="guide4280" inkscape:locked="false" />
<sodipodi:guide position="850.89177,517.57932" orientation="1,0" id="guide4282" inkscape:locked="false" />
</sodipodi:namedview>
<metadata id="metadata7">
<rdf:RDF>
<cc:Work rdf:about="">
<dc:format>image/svg+xml</dc:format>
<dc:type rdf:resource="http://purl.org/dc/dcmitype/StillImage" />
<dc:title />
</cc:Work>
</rdf:RDF>
</metadata>
<g inkscape:label="Layer 1" inkscape:groupmode="layer" id="layer1" transform="translate(1.8423758,-22.885266)">
<g transform="translate(-35.397959,-83.543981)" id="layer1-0" inkscape:label="Layer 1">
<path style="fill:#96092b;fill-opacity:1;fill-rule:evenodd;stroke:none;stroke-width:0.80000001;stroke-miterlimit:4;stroke-dasharray:none" d="m 247.94611,149.45176 h -14.27623 c -0.81968,0 -1.36614,0.47816 -1.9126,0.8197 -0.61476,0.54647 -0.81968,1.16123 -0.81968,1.91262 l 0.54645,82.72105 -38.59361,-83.60905 c -0.20492,-0.61477 -0.34154,-1.22955 -0.9563,-1.36616 -0.20492,-0.47816 -0.75138,-0.47816 -1.36615,-0.47816 h -17.96481 c -0.81968,0 -1.36614,0.47816 -1.77598,0.8197 -0.54646,0.54647 -0.95631,1.16123 -0.95631,1.91262 V 265.1656 c 0,0.61477 0.40985,1.36615 0.95631,1.98093 0.40984,0.54647 0.9563,0.75139 1.77598,0.75139 h 14.48114 c 0.75139,0 1.36615,-0.20492 1.91261,-0.75139 0.40984,-0.61478 0.81968,-1.36616 0.81968,-1.98093 l -0.81968,-82.31121 38.66191,83.54076 c 0,0.47815 0.61477,0.75138 0.75138,0.888 0.61477,0.40985 1.16122,0.61477 1.70768,0.61477 h 17.82821 c 0.9563,0 1.36614,-0.20492 1.9126,-0.75139 0.61476,-0.61478 0.81968,-1.36616 0.81968,-1.98093 V 152.18408 c 0,-0.75139 -0.20492,-1.36615 -0.81968,-1.91262 -0.54646,-0.34154 -0.9563,-0.8197 -1.9126,-0.8197" id="path2993" inkscape:connector-curvature="0" />
<path style="fill:#96092b;fill-opacity:1;fill-rule:evenodd;stroke:none;stroke-width:0.80000001;stroke-miterlimit:4;stroke-dasharray:none" d="m 300.81594,148.0856 c -0.61478,-0.75139 -0.95631,-0.888 -1.57108,-1.36616 -0.75138,-0.13662 -1.36614,-0.13662 -2.11752,0.47816 l -13.66145,6.96742 c -0.75138,0.20492 -1.36615,0.81969 -1.36615,1.57108 -0.20493,0.8197 -0.20493,1.36616 0.40985,2.18586 l 36.06624,64.55111 v 42.69253 c 0,0.61477 0.20492,1.36615 0.75138,1.98093 0.40984,0.54647 1.0246,0.75139 1.77598,0.75139 h 14.48115 c 0.75138,0 1.36614,-0.20492 1.9126,-0.75139 0.61476,-0.61478 0.81968,-1.36616 0.81968,-1.98093 v -42.69253 l 36.27116,-64.55111 c 0.20492,-0.40985 0.20492,-1.02462 0.20492,-1.36616 0,-0.40985 0,-1.02463 -0.20492,-1.36617 -0.20492,-0.40984 -0.75138,-0.81969 -1.16123,-1.02461 l -13.66146,-6.96742 c -0.61476,-0.61478 -1.36614,-0.61478 -1.9809,-0.47816 -0.75138,0.47816 -1.36615,0.61477 -1.57107,1.36616 l -27.66443,53.48521 z" id="path2995" inkscape:connector-curvature="0" />
<path style="fill:#96092b;fill-opacity:1;fill-rule:evenodd;stroke:none;stroke-width:0.80000001;stroke-miterlimit:4;stroke-dasharray:none" d="m 79.090525,204.9179 13.115,-54.23659 12.705145,54.23659 z m 2.73229,-86.47799 c -0.54645,0.47815 -0.75137,0.81969 -1.09291,1.63939 l -36.5444,143.31029 v 1.7077 c 0.0683,0.13661 0.13661,0.27323 0.20493,0.47815 0.34153,0.34155 0.9563,0.95631 1.70768,0.95631 l 14.27621,4.09849 c 0.40985,0 0.75138,0.34155 1.36615,0 0.40985,0 0.81969,-0.20492 1.36615,-0.75138 0.40984,-0.27324 0.61476,-0.81971 0.61476,-1.22955 l 10.92917,-45.42485 h 34.973315 l 11.06578,45.42485 c 0,0.40984 0.20492,0.95631 0.40985,1.22955 0.34153,0.54646 0.9563,0.75138 1.36614,0.75138 0.34154,0.34155 0.9563,0.34155 1.36615,0 l 14.20791,-3.75694 c 0.75138,-0.34155 1.36615,-0.95631 1.57107,-1.29786 0.54646,-0.81969 0.54646,-1.36615 0.54646,-2.18585 L 103.54453,120.0793 c -0.20493,-0.8197 -0.61477,-1.16124 -1.02461,-1.63939 -0.47816,-0.27324 -1.09292,-0.47816 -1.63938,-0.47816 h -0.0683 -17.350045 -0.13662 c -0.68307,0 -1.22953,0.20492 -1.50276,0.47816" id="path2997" inkscape:connector-curvature="0" />
<path inkscape:connector-curvature="0" id="path3001-5" d="m 327.74619,136.4043 c -11.60791,-0.0644 -18.62412,14.74493 -12,24 5.63456,9.4197 20.88287,8.89382 26,-0.6875 6.06039,-10.3475 -1.70823,-24.19242 -14,-23.3125 z" style="fill:#ffffff;fill-opacity:1;fill-rule:evenodd;stroke:none" />
<path style="fill:#a7a6a6;fill-opacity:1;fill-rule:evenodd;stroke:none" d="m 328.54869,138.38586 c -3.89352,0 -6.83073,1.36616 -9.56302,3.89356 -2.39076,2.73232 -3.7569,5.80618 -3.7569,9.3582 0,3.89355 1.36614,7.24066 3.7569,9.56312 2.73229,2.73233 5.6695,4.09849 9.56302,4.09849 3.48366,0 6.83073,-1.36616 9.56301,-4.09849 2.32244,-2.32246 3.68858,-5.66957 3.68858,-9.56312 0,-3.55202 -1.36614,-6.62588 -3.68858,-9.3582 -2.73228,-2.5274 -6.07935,-3.89356 -9.56301,-3.89356" id="path3001" inkscape:connector-curvature="0" />
<text xml:space="preserve" style="font-style:normal;font-variant:normal;font-weight:normal;font-stretch:normal;line-height:0%;font-family:sans-serif;-inkscape-font-specification:'Sans, Normal';text-align:start;letter-spacing:0px;word-spacing:0px;writing-mode:lr-tb;text-anchor:start;fill:#a7a6a6;fill-opacity:1;stroke:#a7a6a6;stroke-width:1px;stroke-linecap:butt;stroke-linejoin:miter;stroke-opacity:1" x="978.16956" y="170.27975" id="text4186"><tspan sodipodi:role="line" id="tspan4188" x="978.16956" y="170.27975" style="font-style:normal;font-variant:normal;font-weight:normal;font-stretch:normal;font-size:25.46500015px;line-height:125%;font-family:sans-serif;-inkscape-font-specification:'Sans, Normal';text-align:start;writing-mode:lr-tb;text-anchor:start;fill:#a7a6a6;fill-opacity:1;stroke:#a7a6a6;stroke-opacity:1">TM</tspan></text>
<text xml:space="preserve" style="font-style:normal;font-variant:normal;font-weight:normal;font-stretch:normal;line-height:0%;font-family:'Trebuchet MS';-inkscape-font-specification:'Trebuchet MS, Normal';text-align:start;letter-spacing:0px;word-spacing:0px;writing-mode:lr-tb;text-anchor:start;fill:#a7a6a6;fill-opacity:1;stroke:#a7a6a6;stroke-width:1.02433228px;stroke-linecap:butt;stroke-linejoin:miter;stroke-opacity:1" x="366.61069" y="277.65286" id="text4196" transform="scale(1.0436848,0.95814369)"><tspan sodipodi:role="line" id="tspan4198" x="366.61069" y="281.04147" style="font-style:normal;font-variant:normal;font-weight:normal;font-stretch:normal;font-size:211.26852417px;line-height:125%;font-family:'Trebuchet MS';-inkscape-font-specification:'Trebuchet MS, Normal';text-align:start;writing-mode:lr-tb;text-anchor:start;fill:#a7a6a6;fill-opacity:1;stroke:#a7a6a6;stroke-width:1.02433228px;stroke-opacity:1" /></text>
<text transform="scale(0.98450312,1.0157408)" id="text4276" y="352.09433" x="393.18701" style="font-style:italic;font-variant:normal;font-weight:normal;font-stretch:normal;line-height:0%;font-family:Corbel;-inkscape-font-specification:'Corbel, Italic';text-align:start;letter-spacing:0px;word-spacing:0px;writing-mode:lr-tb;text-anchor:start;fill:#96092b;fill-opacity:1;stroke:#96092b;stroke-width:2.01480842px;stroke-linecap:butt;stroke-linejoin:miter;stroke-opacity:1" xml:space="preserve"><tspan style="font-size:80.59235382px;line-height:1.25;letter-spacing:6.8668685px;stroke-width:2.01480842px" y="352.09433" x="393.18701" id="tspan4278" sodipodi:role="line">COMMUNITY</tspan></text>
<text transform="scale(0.97879508,1.0216643)" xml:space="preserve" style="font-style:normal;font-variant:normal;font-weight:normal;font-stretch:normal;font-size:15.12031746px;line-height:0%;font-family:Corbel;-inkscape-font-specification:'Corbel, Normal';text-align:start;letter-spacing:0px;word-spacing:0px;writing-mode:lr-tb;text-anchor:start;fill:#a7a6a6;fill-opacity:1;stroke:#a7a6a6;stroke-width:1.38578475px;stroke-linecap:butt;stroke-linejoin:miter;stroke-opacity:1" x="386.17035" y="262.82462" id="text4200-3"><tspan sodipodi:role="line" id="tspan4202-2" x="386.17035" y="262.82462" style="font-style:normal;font-variant:normal;font-weight:normal;font-stretch:normal;font-size:221.7331543px;line-height:125%;font-family:Corbel;-inkscape-font-specification:'Corbel, Normal';font-variant-ligatures:normal;font-variant-caps:small-caps;font-variant-numeric:normal;font-feature-settings:normal;text-align:start;writing-mode:lr-tb;text-anchor:start;fill:#a7a6a6;fill-opacity:1;stroke:#a7a6a6;stroke-width:1.38578475px;stroke-opacity:1">Script</tspan></text>
<flowRoot xml:space="preserve" id="flowRoot4228" style="font-style:normal;font-weight:normal;line-height:0.01%;font-family:sans-serif;letter-spacing:0px;word-spacing:0px;fill:#000000;fill-opacity:1;stroke:none;stroke-width:1px;stroke-linecap:butt;stroke-linejoin:miter;stroke-opacity:1" transform="translate(35.397959,83.543981)"><flowRegion id="flowRegion4230"><rect id="rect4232" width="14.325509" height="107.4413" x="162.35574" y="190.44418" /></flowRegion><flowPara id="flowPara4234" style="font-size:40px;line-height:1.25"> </flowPara></flowRoot></g>
</g>
</svg>
