<svg version="1" xmlns="http://www.w3.org/2000/svg" width="933.333" height="933.333" viewBox="0 0 700.000000 700.000000"><path d="M122.3 185.7c-1.4 1.1-2.9 4.7-4.1 9.8-1.9 7.7-16.7 65.8-25.7 101-12.3 47.8-17.7 69.2-18.1 70.8-.2 1-.6 2.7-.9 3.7-.3 1-.8 2.7-1 3.7-.2 1-3.4 13.5-7 27.8-3.7 14.2-6.8 26.6-7 27.5-.2.8-1.5 6-3 11.5-1.4 5.5-2.8 10.9-3 12-.3 1.1-2.4 9.4-4.8 18.5-2.3 9.1-4.1 17.4-3.9 18.6.3 2.4 1.2 2.7 21 8.4 8.1 2.3 15.2 3.8 16.3 3.5 2.6-.8 3.4-3 6.4-16.5.2-.8.8-3.5 1.4-6 .7-2.5 1.4-5.6 1.7-7 .3-1.4 1.1-5 1.9-8 .8-3 3.5-14.1 6-24.5 7.9-33.2 8.8-36.5 9.9-36.6 4-.3 71.7-.1 71.9.2.2.3 7.4 29.1 9.2 36.9 1 4.8 9.1 38.3 11.5 48 3.2 12.5 4.5 14.5 9.5 13.4 7.3-1.5 29.1-7.7 30.7-8.8 1-.6 2.1-2 2.4-3.2.4-1.7-9.5-42.6-25.2-103.4-1.9-7.4-7.3-28.6-12-47s-9.4-36.9-10.5-41c-1.1-4.1-2.2-8.2-2.4-9-.2-.8-4.2-16.8-9-35.5s-10.6-41.6-13-50.9c-2.4-9.2-4.8-17.3-5.5-18-.7-.7-7.9-1.2-21.4-1.4-18.3-.3-20.5-.1-22.3 1.5zm22.3 69.6c.5 2.1 3.2 13.8 6.4 27.2 1.7 7.1 3.3 13.9 3.5 15 .7 2.9 9 38.6 12.7 53.8 1.6 7.1 2.7 13.1 2.3 13.5-1.1 1.1-52.5.9-52.5-.2 0-.6 2.2-10.2 5-21.5 2.7-11.4 7.9-32.8 11.5-47.6 5.8-24.2 7.5-30.9 8-32.5.8-2.5 1.8-8.7 1.6-9.5-.1-.6.1-.6.5-.2.4.4.9 1.3 1 2zM551 219.9c-8.5 2.8-15.3 8.9-19.6 17.7-3.8 7.7-4 19.4-.5 26.5 7.3 15.1 21.6 21.7 38 17.5 14.6-3.7 23.4-16.1 22.7-31.8-.5-12.5-6.8-22.2-17.8-27.9-4.6-2.4-18-3.6-22.8-2z"/><path d="M480.9 248.4c-8.5 4.5-16.1 8.5-16.8 9-2.2 1.4-.6 5.4 7.9 20.6 4.5 8 9.7 17.3 11.6 20.8 1.9 3.4 4.4 7.9 5.6 10 1.1 2 8.3 14.7 15.8 28.2s18.3 32.8 24 42.9l10.3 18.4.1 45.8c.1 40.8.3 46 1.7 47.4 1.3 1.4 4 1.7 14.5 1.6 20.1 0 20.9 0 23-1.5 1.8-1.4 1.9-3.1 1.9-47.3l.1-45.8 3-5.5c1.7-3 6-10.7 9.6-17 3.6-6.3 7.7-13.8 9.3-16.5 1.5-2.8 5.5-10 9-16 3.4-6.1 7.7-13.7 9.5-17 1.8-3.3 6-10.7 9.3-16.5 3.3-5.8 7.1-12.5 8.5-15 1.3-2.5 6-10.8 10.3-18.5 7.6-13.6 8.7-17.2 6.2-19.6-2.4-2.1-33.2-16.9-34.4-16.4-1.9.7-2.4 1.7-11.5 19.2-7.9 15.3-18.1 35-28.9 55.8-3.4 6.6-9.3 18-13.1 25.2-3.7 7.3-7.1 13.3-7.4 13.3-.3 0-1.5-1.9-2.6-4.3-1.1-2.3-6-11.9-10.8-21.2-4.9-9.4-12.3-23.5-16.4-31.5-4.1-8-10.1-19.5-13.2-25.5-3.1-6.1-7.7-14.8-10.1-19.5-4.9-9.4-6-11-8.6-11.4-1-.2-8.8 3.3-17.4 7.8zM269.9 247.9l-2.4 1.9-.1 118.9c0 127.5-.2 124.2 4.9 124.4 3.9.1 30.1.1 31.9 0 5.5-.3 5.3 5.4 3.4-157.3-.1-10.4.1-18.5.5-18 .4.4 4.8 9.7 9.9 20.7 5 11 10.9 23.7 13.1 28.3 2.1 4.5 3.9 8.4 3.9 8.6 0 .2 2.4 5.5 5.4 11.7 2.9 6.3 7.9 17 11.1 23.9 3.2 6.9 7.9 17 10.4 22.5 2.6 5.5 9.6 20.7 15.7 33.8 6.3 13.9 11.7 24.3 12.8 24.9 2 1.1 39.1 1.4 42.5.3 1.1-.3 2.3-1.5 2.6-2.6.4-1.1.7-55.7.7-121.2V249.6l-2.3-1.9c-2-1.6-4-1.8-18.9-1.5-12.6.2-17.1.6-18.4 1.7-1.6 1.3-1.7 7.2-1.2 89l.6 87.6-6.3-14c-8.1-17.8-10.9-23.8-16.3-35.3-2.4-5.2-4.4-9.5-4.4-9.7 0-.1-2.9-6.4-6.5-14-3.6-7.5-6.5-13.8-6.5-14 0-.2-2.1-4.7-4.6-10.2-11.3-24.2-13.3-28.4-28.4-61.3-10.3-22.6-6.4-20-30.4-20-18.6 0-20.6.2-22.7 1.9z"/></svg>